<?xml version="1.0" standalone="no"?>
<!DOCTYPE svg PUBLIC "-//W3C//DTD SVG 20010904//EN"
 "http://www.w3.org/TR/2001/REC-SVG-20010904/DTD/svg10.dtd">
<svg version="1.0" xmlns="http://www.w3.org/2000/svg"
 width="512.000000pt" height="512.000000pt" viewBox="0 0 512.000000 512.000000"
 preserveAspectRatio="xMidYMid meet">
<metadata>
Created by potrace 1.11, written by Peter Selinger 2001-2013
</metadata>
<g transform="translate(0.000000,512.000000) scale(0.100000,-0.100000)"
fill="#000000" stroke="none">
<path d="M120 5000 c-20 -20 -20 -31 -20 -2438 0 -2331 1 -2420 18 -2435 17
-16 201 -17 2445 -17 2389 0 2426 0 2437 19 13 26 14 4849 0 4871 -8 13 -291
15 -2435 18 -2416 2 -2425 2 -2445 -18z m1910 -1569 c-73 -84 -994 -1001
-1005 -1001 -6 0 -108 98 -227 217 l-218 218 307 308 308 307 -308 308 -307
307 222 223 223 222 527 -527 527 -527 -49 -55z m2374 -277 c3 -9 6 -146 6
-305 l0 -289 -925 0 -925 0 0 305 0 305 919 0 c829 0 919 -2 925 -16z"/>
</g>
</svg>
